Coordinates
version=1
nRows=60
nColumns=12
inDegrees=yes

Units are S.I. units (second, meters, Newtons, ...)
Angles are in degrees

endheader
time	SC_y	SC_z	SC_x	AC_y	AC_z	AC_x	GH_y	GH_z	GH_yy	EL_x	PS_y
       0.0              -35.28          2.755          40.27          31.41         -18.08         -14.65          137.7           38.1          63.05          25.06          112.7
   0.01208              -35.29          2.757          40.26          31.42         -18.08         -14.65          137.7           38.1          63.03          25.06          112.6
   0.02415              -35.29          2.759          40.26          31.42         -18.07         -14.65          137.7          38.09           63.0          25.06          112.6
   0.03623              -35.29          2.762          40.26          31.43         -18.07         -14.64          137.6          38.09          62.97          25.06          112.6
    0.0483               -35.3          2.764          40.26          31.44         -18.06         -14.64          137.6          38.08          62.93          25.06          112.6
   0.06038               -35.3          2.767          40.26          31.44         -18.06         -14.64          137.5          38.07           62.9          25.06          112.6
   0.07245              -35.31           2.77          40.25          31.45         -18.05         -14.63          137.4          38.07          62.86          25.06          112.6
   0.08453              -35.31          2.773          40.25          31.46         -18.05         -14.63          137.4          38.06          62.82          25.06          112.5
    0.0966              -35.32          2.776          40.25          31.46         -18.04         -14.62          137.3          38.05          62.78          25.06          112.5
    0.1087              -35.32          2.779          40.25          31.47         -18.04         -14.62          137.2          38.04          62.73          25.06          112.5
    0.1208              -35.33          2.783          40.24          31.48         -18.03         -14.61          137.2          38.03          62.69          25.06          112.5
    0.1328              -35.33          2.787          40.24          31.49         -18.02         -14.61          137.1          38.02          62.63          25.06          112.4
    0.1449              -35.34          2.791          40.24           31.5         -18.01          -14.6          137.0          38.01          62.57          25.06          112.4
     0.157              -35.35          2.796          40.24          31.51         -18.01         -14.59          136.9           38.0          62.51          25.06          112.4
    0.1691              -35.36            2.8          40.23          31.52          -18.0         -14.59          136.8          37.99          62.45          25.06          112.3
    0.1811              -35.36          2.806          40.23          31.54         -17.99         -14.58          136.7          37.98          62.37          25.05          112.3
    0.1932              -35.37          2.812          40.22          31.55         -17.98         -14.57          136.6          37.96           62.3          25.05          112.2
    0.2053              -35.38          2.818          40.22          31.57         -17.97         -14.56          136.4          37.95          62.21          25.05          112.2
    0.2174               -35.4          2.825          40.21          31.58         -17.95         -14.55          136.3          37.93          62.12          25.05          112.1
    0.2294              -35.41          2.833          40.21           31.6         -17.94         -14.54          136.1          37.91          62.01          25.05          112.1
    0.2415              -35.42          2.841           40.2          31.62         -17.92         -14.53          135.9          37.89           61.9          25.05          112.0
    0.2536              -35.44           2.85           40.2          31.64         -17.91         -14.51          135.7          37.87          61.78          25.05          111.9
    0.2657              -35.45           2.86          40.19          31.67         -17.89          -14.5          135.5          37.84          61.64          25.05          111.9
    0.2777              -35.47          2.872          40.18          31.69         -17.87         -14.48          135.3          37.82          61.49          25.05          111.8
    0.2898              -35.49          2.884          40.17          31.72         -17.85         -14.46          135.0          37.79          61.32          25.04          111.7
    0.3019              -35.52          2.898          40.16          31.76         -17.82         -14.44          134.7          37.75          61.13          25.04          111.6
     0.314              -35.54          2.914          40.15           31.8         -17.79         -14.42          134.4          37.71          60.92          25.04          111.5
     0.326              -35.57          2.931          40.14          31.84         -17.76         -14.39          134.0          37.67          60.69          25.04          111.3
    0.3381               -35.6          2.951          40.12          31.89         -17.73         -14.36          133.6          37.62          60.42          25.03          111.2
    0.3502              -35.64          2.974           40.1          31.94         -17.68         -14.33          133.1          37.57          60.11          25.03          111.0
    0.3623              -35.68          2.999          40.08           32.0         -17.64         -14.29          132.6          37.51          59.77          25.03          110.8
    0.3743              -35.73          3.029          40.06          32.07         -17.58         -14.25          131.9          37.43          59.37          25.02          110.6
    0.3864              -35.78          3.063          40.04          32.15         -17.52          -14.2          131.2          37.35          58.91          25.02          110.3
    0.3985              -35.85          3.103          40.01          32.25         -17.45         -14.14          130.4          37.25          58.38          25.01          110.1
    0.4106              -35.92          3.149          39.97          32.36         -17.37         -14.07          129.4          37.14          57.75          25.01          109.7
    0.4226              -36.01          3.204          39.93          32.49         -17.27         -13.99          128.2          37.01          57.01           25.0          109.3
    0.4347              -36.12          3.269          39.89          32.65         -17.15         -13.89          126.9          36.85          56.14          24.99          108.8
    0.4468              -36.25          3.347          39.83          32.84         -17.01         -13.77          125.2          36.66          55.09          24.98          108.2
    0.4589               -36.4          3.441          39.76          33.06         -16.84         -13.63          123.2          36.43          53.82          24.97          107.5
    0.4709              -36.59          3.556          39.67          33.34         -16.63         -13.46          120.8          36.15          52.27          24.95          106.6
     0.483              -36.82          3.698          39.57          33.68         -16.38         -13.25          117.7           35.8          50.36          24.93          105.6
    0.4951              -37.11          3.876          39.44          34.11         -16.06         -12.99          114.0          35.37          47.97          24.91          104.2
    0.5072              -37.47          4.099          39.27          34.64         -15.65         -12.65          109.3          34.82          44.96          24.88          102.6
    0.5192              -37.94          4.383          39.06          35.33         -15.14         -12.23          103.2          34.13          41.14          24.84          100.4
    0.5313              -38.53          4.746           38.8           36.2         -14.48         -11.69          95.53          33.25          36.25          24.79          97.71
    0.5434              -39.29          5.212          38.45          37.32         -13.64          -11.0          85.64          32.11          29.98          24.72          94.21
    0.5555              -40.26          5.808          38.01          38.75         -12.56         -10.11          73.01          30.66          21.96          24.64          89.74
    0.5675              -41.48          6.556          37.46          40.55         -11.21         -8.995          57.13          28.83          11.88          24.54          84.12
    0.5796              -42.97          7.469          36.79          42.75         -9.563         -7.637          37.78           26.6         -0.408          24.41          77.27
    0.5917               -44.7          8.526          36.01          45.29         -7.652         -6.062          15.35          24.02         -14.65          24.27          69.33
    0.6038              -46.57          9.672          35.16          48.04         -5.583         -4.357         -8.937          21.23         -30.07          24.11          60.73
    0.6158              -48.43          10.82          34.32           50.8         -3.514         -2.652         -33.22          18.44         -45.49          23.95          52.13
    0.6279              -50.16          11.87          33.54          53.34         -1.603         -1.077         -55.66          15.86         -59.73          23.81          44.19
      0.64              -51.65          12.79          32.87          55.53        0.04535         0.2816         -75.01          13.63         -72.01          23.68          37.34
    0.6521              -52.87          13.54          32.31          57.33          1.398          1.396         -90.89          11.81         -82.09          23.58          31.72
    0.6641              -53.84          14.13          31.87          58.76          2.474          2.283         -103.5          10.35         -90.11           23.5          27.25
    0.6762               -54.6           14.6          31.53          59.88          3.316          2.977         -113.4          9.216         -96.39          23.43          23.75
    0.6883              -55.19          14.96          31.26          60.76          3.973          3.518         -121.1           8.33         -101.3          23.38          21.02
    0.7004              -55.66          15.24          31.05          61.44          4.485          3.941         -127.1          7.637         -105.1          23.34          18.89
    0.7124              -56.02          15.47          30.89          61.98          4.889          4.273         -131.9          7.093         -108.1          23.31          17.21
